<svg width="40" height="40" viewBox="0 0 40 40" fill="none" xmlns="http://www.w3.org/2000/svg">
  <path
    d="M0 6C0 2.68629 2.68629 0 6 0H34C37.3137 0 40 2.68629 40 6V34C40 37.3137 37.3137 40 34 40H6C2.68629 40 0 37.3137 0 34V6Z"
    fill="#FF4622" />
  <g clip-path="url(#clip0_374_7959)">
    <mask id="mask0_374_7959" style="mask-type:luminance" maskUnits="userSpaceOnUse" x="5" y="17"
      width="29" height="6">
      <path d="M5 17H34V23H5V17Z" fill="white" />
    </mask>
    <g mask="url(#mask0_374_7959)">
      <path
        d="M31.5694 21.6589V17.0772H30.1926V22.9087H33.5938L33.9988 21.6591H31.5694V21.6589ZM29.0267 18.3268L29.4314 17.0772H25.6255V22.9087H29.0267L29.4314 21.6591H27.0026V20.5426H28.704L29.1079 19.293H27.0023V18.3268H29.0267ZM20.3619 18.3268H22.0388V22.9084H23.4154V18.3265H24.8736V17.0772H21.123L20.3619 18.3268ZM20.2405 17.0772H18.7017L17.738 18.6682L16.7664 17.0772H15.2278L16.9689 19.9259L15.1461 22.9074H16.6847L17.7375 21.1914L18.782 22.9074H20.3209L18.5069 19.9262L20.2405 17.0772ZM12.5231 21.5673C12.219 21.5675 11.9224 21.4757 11.6736 21.3043C11.4192 21.1288 11.2231 20.8839 11.1095 20.6C10.9933 20.3114 10.9629 19.9965 11.0217 19.6916C11.079 19.3894 11.224 19.1099 11.4394 18.8866C11.6497 18.6686 11.9228 18.5187 12.2222 18.4567C12.5189 18.3962 12.8276 18.4277 13.1052 18.5469C13.3874 18.669 13.6259 18.871 13.79 19.1271C13.9577 19.3859 14.0465 19.6901 14.0454 20.001C14.0454 20.4166 13.8853 20.8149 13.5998 21.1087C13.3141 21.4022 12.9267 21.5673 12.5231 21.5673ZM12.5231 17.0021C12.139 17.0021 11.7591 17.0797 11.407 17.2301C11.0506 17.3825 10.729 17.6035 10.4612 17.8799C10.1884 18.1613 9.97378 18.4917 9.82901 18.8529C9.68227 19.2186 9.60717 19.6081 9.60765 20.001C9.60765 21.651 10.9113 22.9916 12.5231 22.9916C14.1271 22.9916 15.4303 21.6508 15.4303 20.001C15.4303 18.3435 14.1266 17.0026 12.5231 17.0026V17.0021ZM8.92761 18.327L9.33255 17.0775H5.52637V22.9087H6.90347V20.8095H8.60409L9.00903 19.5599H6.90347V18.3268L8.92761 18.327Z"
        fill="white" />
    </g>
  </g>
  <defs>
    <clipPath id="clip0_374_7959">
      <rect width="29" height="6" fill="white" transform="translate(5 17)" />
    </clipPath>
  </defs>
</svg>