<svg width="40" height="40" viewBox="0 0 40 40" fill="none" xmlns="http://www.w3.org/2000/svg">
  <rect width="40" height="40" rx="6" fill="url(#paint0_linear_374_7968)" />
  <path
    d="M11.9336 18.7386C12.1438 17.1655 11.0503 16.6826 9.78108 16.6826H6.50883L5.58594 23.2806H9.2424C10.3967 23.2806 11.6252 22.8256 11.8332 21.4616C11.9531 20.6759 11.7038 20.2376 11.0174 19.9839L10.9298 19.9565L11.0252 19.9314C11.5003 19.7909 11.8388 19.4502 11.9336 18.7386ZM9.79279 21.1794C9.71918 21.6824 9.25578 21.7304 8.86208 21.7304H7.81316L7.96595 20.6374H9.01711C9.42419 20.6374 9.86417 20.696 9.79279 21.1794ZM9.83405 18.7888C9.77439 19.2238 9.4359 19.2444 9.05001 19.2444H8.16057L8.29273 18.2998H9.18384C9.53348 18.2998 9.89261 18.36 9.83405 18.7888Z"
    fill="white" />
  <path d="M15.2622 16.6826H12.9926L12.7656 18.3015H15.0363L15.2622 16.6826Z" fill="white" />
  <path
    d="M34.7486 18.4827L35.0001 16.6826H29.5508L28.6279 23.2801H34.0778L34.3315 21.4638H30.912L31.0152 20.7261H33.8497L34.0627 19.202H31.2282L31.3286 18.4827H34.7486Z"
    fill="white" />
  <path
    d="M26.6934 20.8119C26.477 21.3812 25.9718 21.4615 25.727 21.4615C25.3885 21.4615 25.1554 21.3812 24.8626 21.1766C24.5966 20.9909 24.3446 20.6357 24.3055 20.2331C24.2487 19.6408 24.4461 19.2416 24.7355 18.9438C25.002 18.6689 25.3054 18.4832 25.9991 18.4832H28.7109L28.9635 16.6831H25.5452C24.2185 16.6831 23.541 17.316 23.1311 17.7298C22.5211 18.3415 22.2361 19.2076 22.2239 20.1388C22.2116 21.0745 22.6979 21.9249 23.1345 22.3582C23.8778 23.1016 24.5832 23.2828 25.5625 23.2828L27.1194 23.2811H28.0395L28.5737 19.4657H26.0019L26.6934 20.8119Z"
    fill="white" />
  <path
    d="M19.7793 20.4645L17.8253 16.6826H15.917L14.9941 23.2801H16.8979L17.392 19.7686L19.2138 23.2801H21.2487L22.1715 16.6826H20.3107L19.7793 20.4645Z"
    fill="white" />
  <path d="M12.5856 19.5986L12.0703 23.2801H14.3399L15.0375 18.3015L12.5856 19.5986Z" fill="white" />
  <defs>
    <linearGradient id="paint0_linear_374_7968" x1="3.90616" y1="0.32884" x2="44.9638" y2="21.4336"
      gradientUnits="userSpaceOnUse">
      <stop stop-color="#003BFF" />
      <stop offset="0.41" stop-color="#6900C7" />
      <stop offset="0.64" stop-color="#A80086" />
      <stop offset="0.81" stop-color="#DB0C46" />
      <stop offset="1" stop-color="#FFA600" />
    </linearGradient>
  </defs>
</svg>