<svg width="40" height="40" viewBox="0 0 40 40" fill="none" xmlns="http://www.w3.org/2000/svg">
  <rect width="40" height="40" rx="6" fill="#283A44" />
  <g clip-path="url(#clip0_374_8101)">
    <path fill-rule="evenodd" clip-rule="evenodd"
      d="M20.2113 5.03906L20.3694 5.04586C20.6323 5.0685 20.8912 5.14776 21.1265 5.28363L32.5077 11.8546L32.6177 11.9234C33.1173 12.2615 33.4228 12.8311 33.4228 13.4395V26.5814L33.4181 26.7111C33.3751 27.3129 33.0345 27.8622 32.5077 28.1662L21.1265 34.7372L21.0056 34.8011C20.7592 34.9196 20.4873 34.9817 20.2114 34.9817L20.0739 34.9765C19.8 34.956 19.5335 34.8743 19.2963 34.7372L7.91515 28.1662L7.80515 28.0974C7.3055 27.7593 7 27.1898 7 26.5814V13.4395L7.00464 13.3098C7.04771 12.708 7.38834 12.1586 7.91521 11.8546L19.2963 5.28363C19.5784 5.12059 19.8948 5.03906 20.2113 5.03906ZM20.2114 5.80576L20.0998 5.8116C19.9519 5.82713 19.8085 5.87338 19.6797 5.94764L8.29858 12.5186L8.204 12.5802C7.93192 12.7788 7.7669 13.0986 7.7669 13.4395V26.5814L7.77293 26.6941C7.80889 27.029 8.00343 27.3318 8.29858 27.5023L19.6797 34.0733C19.8436 34.1679 20.0274 34.2151 20.2112 34.2151L20.3214 34.2095C20.4678 34.1943 20.6118 34.1489 20.743 34.0733L32.1242 27.5023L32.2188 27.4407C32.4909 27.2421 32.6559 26.9222 32.6559 26.5814V13.4395L32.6498 13.3268C32.6139 12.9918 32.4194 12.689 32.1242 12.5186L20.743 5.94764L20.644 5.89724C20.5087 5.83715 20.361 5.80576 20.2114 5.80576ZM20.1504 13.6992L20.375 13.7037C21.5676 13.7516 22.6734 14.1842 23.8201 15.0514L24.0356 15.2191L24.0774 15.2527L23.2449 16.3376L23.2011 16.302L22.9973 16.14C22.0525 15.4099 21.1969 15.0425 20.3352 14.9968L20.1504 14.9919L20.0187 14.9951C19.157 15.0373 18.5725 15.4962 18.5162 16.1738L18.5117 16.2826L18.5172 16.3994C18.6042 17.316 19.7165 17.8422 21.032 18.4226L21.2046 18.4986L21.3491 18.5623C23.3817 19.4586 25.8189 20.599 25.9312 23.561L25.9352 23.7757L25.932 23.9427C25.8312 26.6023 23.3305 28.7502 20.2329 28.8385L20.0344 28.8413L19.7806 28.8375C17.9266 28.7819 16.224 28.1122 14.464 26.7463L14.2236 26.5557L14.182 26.5221L14.9446 25.5308L14.9881 25.5655L15.2217 25.7479C16.7688 26.9292 18.1953 27.4912 19.7824 27.5445L20.0344 27.5487L20.2124 27.5459C22.5722 27.4714 24.4094 25.9215 24.4998 23.9298L24.5033 23.7757L24.4987 23.5847C24.3938 21.4599 22.5363 20.5356 20.6834 19.6744L20.5097 19.5938L20.3394 19.5147C18.6401 18.7249 17.0798 17.9477 17.0798 16.2826C17.0798 14.834 18.4286 13.6992 20.1504 13.6992ZM20.1504 11.3331L20.408 11.3371C22.1169 11.3912 23.658 11.9883 25.217 13.2004L25.451 13.3868L25.4923 13.4205L24.7297 14.4118L24.6861 14.3767L24.4633 14.2023C23.1323 13.1875 21.83 12.6832 20.4034 12.6303L20.1504 12.6257L19.9741 12.6287C17.7537 12.7058 15.9636 14.233 15.8709 16.1281L15.8671 16.2826L15.8718 16.4736C15.9766 18.5984 17.834 19.5227 19.687 20.3839L19.8606 20.4645L20.0309 20.5436C21.6736 21.307 23.1863 22.0588 23.2854 23.6121L23.2905 23.7757L23.2867 23.9145C23.2079 25.3364 21.9216 26.4042 20.2072 26.4717L20.0344 26.475L19.8137 26.4709C18.4952 26.4213 17.2677 25.923 15.8928 24.8791L15.6622 24.7001L15.6196 24.6662L16.4534 23.605L16.4966 23.6407L16.7103 23.8129C17.8406 24.7027 18.8228 25.1307 19.8427 25.178L20.0344 25.1824L20.1787 25.1794C21.1719 25.1369 21.7997 24.6527 21.8547 23.887L21.8587 23.7757L21.8532 23.6589C21.7662 22.7423 20.6538 22.2163 19.3384 21.6357L19.1658 21.5596L19.0213 21.496C16.9403 20.5784 14.4352 19.4049 14.4352 16.2826C14.4352 13.5996 17.0525 11.3331 20.1504 11.3331Z"
      fill="white" />
  </g>
  <defs>
    <clipPath id="clip0_374_8101">
      <rect width="27" height="30" fill="white" transform="translate(7 5)" />
    </clipPath>
  </defs>
</svg>