<svg width="40" height="40" viewBox="0 0 40 40" fill="none" xmlns="http://www.w3.org/2000/svg">
  <rect width="40" height="40" rx="6" fill="black" />
  <path
    d="M21.197 7.96027C21.4009 7.96027 21.6062 7.94854 21.8092 7.96298C22.064 7.98102 22.3171 8.01936 22.5706 8.05139C22.7578 8.07484 22.9436 8.11679 23.1308 8.12491C23.3884 8.13574 23.6248 8.04192 23.7971 7.85472C24.1304 7.49295 24.5495 7.29132 25.0078 7.15735C25.232 7.09194 25.4625 7.04503 25.6925 7.00308C25.8323 6.97737 26.0795 7.11404 26.1531 7.36259C26.1792 7.451 26.163 7.5543 26.1553 7.64993C26.1355 7.89351 26.1125 8.13664 26.0858 8.37977C26.0606 8.61028 26.0349 8.84078 25.9983 9.06948C25.9537 9.3514 25.8982 9.63152 25.8454 9.91209C25.8337 9.97344 25.8057 10.0321 25.7999 10.0934C25.7769 10.3447 25.9609 10.618 26.2406 10.6997C26.5581 10.7921 26.8694 10.9054 27.1842 11.0082C27.458 11.0975 27.7327 11.1846 28.0061 11.2744C28.2686 11.3605 28.5307 11.4489 28.7928 11.5369C28.9588 11.5928 29.1257 11.6469 29.2903 11.7069C29.4387 11.7611 29.4793 11.8368 29.4459 12.0037C29.4211 12.1273 29.3196 12.135 29.2163 12.1391C28.8311 12.1535 28.4464 12.1693 28.0611 12.1869C27.7679 12.2004 27.4752 12.218 27.182 12.2343C26.7625 12.2577 26.343 12.2798 25.9235 12.3073C25.697 12.3222 25.4769 12.3606 25.3389 12.5721C25.31 12.6163 25.2816 12.6659 25.2707 12.7169C25.1715 13.1869 25.0781 13.6579 24.9789 14.1274C24.9216 14.3985 24.8553 14.6674 24.794 14.9376C24.7741 15.0251 24.7574 15.1135 24.7412 15.2019C24.7015 15.4202 24.4277 15.5628 24.2279 15.473C23.7777 15.2714 23.3243 15.077 22.8751 14.8731C22.6924 14.7901 22.5029 14.7102 22.3428 14.5929C22.1831 14.4757 22.1515 14.279 22.1741 14.0877C22.2233 13.6777 22.2363 13.2731 22.1538 12.8626C22.0658 12.4242 21.871 12.0579 21.5218 11.7818C21.3635 11.6564 21.1889 11.5504 20.9837 11.5134C20.8033 11.4809 20.6215 11.4192 20.4419 11.4246C20.1172 11.434 19.8176 11.5455 19.5619 11.7579C19.114 12.1301 18.8677 12.6163 18.7332 13.1734C18.6746 13.417 18.6259 13.6601 18.6444 13.9096C18.6611 14.1374 18.6985 14.3692 18.8997 14.5163C19.0179 14.6024 19.1523 14.6714 19.2876 14.7274C19.5217 14.8244 19.7626 14.9042 19.9999 14.9931C20.3238 15.1139 20.6481 15.2321 20.9697 15.3584C21.382 15.5199 21.7916 15.6891 22.203 15.8533C22.5124 15.9769 22.8236 16.0964 23.1331 16.2195C24.0023 16.5655 24.8697 16.916 25.7408 17.2566C26.029 17.3693 26.3236 17.4713 26.6217 17.5538C26.9226 17.6373 27.2361 17.6747 27.5356 17.7609C27.8212 17.8434 28.1017 17.9508 28.3742 18.0703C28.754 18.2368 29.0729 18.4979 29.3273 18.82C29.4892 19.0253 29.6187 19.263 29.7261 19.5025C29.8925 19.8728 29.9516 20.2725 29.9773 20.6776C29.9895 20.8729 30.0292 21.0664 30.0581 21.2604C30.0932 21.4967 30.1248 21.734 30.1686 21.9686C30.202 22.1485 30.2507 22.3258 30.294 22.5035C30.3305 22.6546 30.3621 22.8076 30.4085 22.9555C30.492 23.2226 30.5754 23.49 30.6774 23.7503C30.7658 23.9759 30.8826 24.1906 30.981 24.4125C31.0464 24.56 30.935 24.7242 30.7726 24.7192C30.3716 24.7062 29.9701 24.694 29.5695 24.6705C29.1428 24.6453 28.8126 24.4125 28.5009 24.1473C28.219 23.9068 27.9781 23.6281 27.8054 23.3024C27.6606 23.0295 27.5415 22.7413 27.4328 22.4517C27.3525 22.2374 27.3002 22.0114 27.2487 21.7872C27.2163 21.646 27.2 21.4999 27.1905 21.3551C27.1621 20.9162 27.1481 20.4759 27.1143 20.0375C27.0913 19.7411 27.0358 19.4493 26.8816 19.1863C26.7377 18.9414 26.5423 18.7519 26.2807 18.6373C26.1761 18.5913 25.9826 18.7185 25.9916 18.8358C26.0056 19.0153 26.0344 19.194 26.0637 19.3721C26.1161 19.6888 26.1729 20.0046 26.2293 20.3203C26.2703 20.5517 26.315 20.7822 26.3556 21.0136C26.3948 21.2374 26.4296 21.462 26.4697 21.6853C26.5108 21.9122 26.559 22.1377 26.5992 22.3646C26.6542 22.6727 26.7034 22.9821 26.7575 23.2907C26.7986 23.5257 26.845 23.7602 26.8861 23.9953C26.9402 24.3038 26.9907 24.6128 27.0457 24.9213C27.0859 25.1482 27.131 25.3747 27.173 25.6016C27.2113 25.809 27.2487 26.017 27.2853 26.2249C27.3119 26.3756 27.3371 26.5263 27.362 26.6769C27.4007 26.9088 27.4377 27.1406 27.4779 27.372C27.5167 27.5958 27.56 27.8186 27.5997 28.0423C27.6556 28.3581 27.7097 28.6739 27.7657 28.9896C27.8058 29.217 27.8473 29.4443 27.8875 29.6721C27.9434 29.9883 27.9966 30.3045 28.0544 30.6203C28.0959 30.8472 28.1441 31.0727 28.1852 31.2996C28.2028 31.3961 28.219 31.4945 28.2195 31.5923C28.2204 31.7444 28.1103 31.8458 27.9416 31.8504C27.7616 31.8558 27.5812 31.8553 27.4017 31.8504C27.2095 31.8449 27.0787 31.6893 27.0435 31.4629C27.0119 31.2585 26.9637 31.0569 26.9199 30.8544C26.8671 30.6103 26.8139 30.3663 26.7562 30.1232C26.7183 29.9644 26.6727 29.8079 26.6303 29.65C26.5766 29.4506 26.5243 29.2508 26.4693 29.0519C26.4021 28.8078 26.338 28.5629 26.2631 28.3216C26.1779 28.0464 26.0859 27.7735 25.9889 27.5024C25.9014 27.2588 25.8062 27.0175 25.7074 26.7784C25.6055 26.5312 25.5058 26.2822 25.3867 26.0432C25.1548 25.579 24.8896 25.136 24.5003 24.7819C24.2856 24.5866 24.0519 24.4373 23.7434 24.4292C23.4944 24.4229 23.3022 24.5307 23.1326 24.6872C22.8868 24.9141 22.7194 25.2005 22.5823 25.501C22.4443 25.8041 22.3126 26.1126 22.2102 26.4288C22.0902 26.7992 22.0031 27.1799 21.9061 27.557C21.8466 27.7875 21.7889 28.0189 21.7406 28.2521C21.6711 28.585 21.6066 28.9192 21.5489 29.2544C21.4871 29.6135 21.4361 29.9748 21.3788 30.3347C21.3328 30.6248 21.2814 30.9144 21.2376 31.2053C21.2079 31.4033 21.1885 31.6032 21.1628 31.8016C21.1384 31.9911 20.9932 32.0782 20.8073 32.0903C20.6558 32.1003 20.5033 32.089 20.3513 32.093C20.0089 32.1025 19.9345 31.9189 19.9633 31.6469C19.9719 31.5644 19.9796 31.4823 19.9863 31.3997C20.0184 31.01 20.0513 30.6203 20.0811 30.2301C20.0933 30.0718 20.0973 29.913 20.1068 29.7546C20.1302 29.359 20.1523 28.9639 20.1794 28.5688C20.1997 28.2733 20.2286 27.9783 20.2502 27.6824C20.2764 27.3193 20.2976 26.9557 20.3229 26.5921C20.354 26.146 20.3851 25.7003 20.4194 25.2547C20.4383 25.007 20.4663 24.7603 20.4857 24.5131C20.4992 24.3444 20.349 24.1973 20.1758 24.1919C19.7306 24.1784 19.2858 24.1617 18.8406 24.1441C18.4915 24.1301 18.1423 24.1125 17.7936 24.0967C17.611 24.0886 17.4287 24.0764 17.246 24.0737C17.0697 24.071 16.951 24.1847 16.9637 24.3588C16.9799 24.5821 17.0133 24.804 17.0422 25.026C17.0606 25.1699 17.0846 25.3133 17.1049 25.4568C17.1527 25.7946 17.2027 26.1325 17.246 26.4708C17.2835 26.7635 17.3105 27.0576 17.3457 27.3508C17.3669 27.5263 17.3949 27.7004 17.4211 27.8754C17.4432 28.0229 17.4675 28.1695 17.4887 28.3171C17.5212 28.5421 17.5546 28.7677 17.5825 28.9932C17.6177 29.2742 17.6466 29.5562 17.6818 29.8367C17.7039 30.0158 17.7314 30.1944 17.7576 30.3731C17.7792 30.5206 17.8036 30.6676 17.8248 30.8147C17.8559 31.028 17.883 31.2423 17.9159 31.4552C17.9578 31.7295 17.8726 31.9049 17.5659 31.8995C17.4337 31.8973 17.3015 31.9022 17.1698 31.8986C16.8951 31.891 16.7932 31.7592 16.7679 31.5066C16.7404 31.2369 16.7043 30.9676 16.675 30.6979C16.6556 30.5215 16.6457 30.3438 16.6235 30.1678C16.6014 29.9933 16.569 29.8196 16.5424 29.6455C16.5054 29.4051 16.4724 29.1642 16.4318 28.9247C16.3935 28.7009 16.3502 28.4785 16.3037 28.2566C16.2374 27.9399 16.1734 27.6219 16.094 27.3084C16.0281 27.0486 15.9465 26.7929 15.863 26.538C15.7706 26.257 15.6763 25.9755 15.5676 25.7003C15.3668 25.192 15.112 24.7129 14.7092 24.3331C14.4931 24.1292 14.2405 23.9822 13.9279 23.975C13.6496 23.9686 13.4534 24.1121 13.2869 24.3151C12.9184 24.7639 12.7149 25.2989 12.5092 25.8293C12.3857 26.1478 12.3049 26.4825 12.2057 26.8104C12.1281 27.0676 12.0442 27.3233 11.9774 27.5831C11.9016 27.8772 11.843 28.1759 11.774 28.4722C11.7307 28.6581 11.6779 28.8417 11.6387 29.0284C11.5981 29.2197 11.5701 29.4136 11.5345 29.6058C11.4948 29.8209 11.4506 30.0357 11.4127 30.2513C11.3707 30.4904 11.3342 30.7303 11.2949 30.9699C11.2638 31.1593 11.2232 31.3474 11.2034 31.5378C11.1858 31.7078 11.0577 31.7854 10.8813 31.7994C10.6783 31.8156 10.4735 31.8048 10.2692 31.8025C10.1086 31.8007 9.98907 31.6853 10.0008 31.5278C10.0134 31.3641 10.0427 31.2017 10.0721 31.0398C10.1248 30.7475 10.1821 30.4556 10.2385 30.1638C10.2741 29.9797 10.3125 29.7961 10.3495 29.6126C10.4086 29.3216 10.4672 29.0302 10.5263 28.7393C10.566 28.5439 10.607 28.3486 10.6476 28.1533C10.6873 27.9621 10.727 27.7712 10.7663 27.58C10.8069 27.3811 10.847 27.1817 10.8872 26.9823C10.9273 26.7834 10.9661 26.5845 11.0067 26.386C11.0464 26.1907 11.0883 25.9953 11.128 25.8C11.1844 25.5244 11.2372 25.2484 11.2958 24.9732C11.3364 24.7824 11.3892 24.5943 11.4285 24.403C11.4988 24.0625 11.562 23.7201 11.631 23.3791C11.6675 23.1995 11.7113 23.0218 11.7492 22.8427C11.8069 22.5676 11.8615 22.2915 11.9188 22.0159C11.9562 21.8364 11.9991 21.6578 12.0365 21.4782C12.0943 21.2031 12.1488 20.927 12.2066 20.6514C12.244 20.4719 12.2869 20.2937 12.3239 20.1137C12.3667 19.9071 12.4037 19.6992 12.447 19.4926C12.488 19.2982 12.5368 19.1051 12.5774 18.9107C12.6477 18.5742 12.7127 18.2363 12.7835 17.8998C12.8363 17.6477 12.8958 17.3973 12.9504 17.1456C13.0081 16.8781 13.0623 16.6102 13.1196 16.3427C13.1588 16.1591 13.2003 15.9764 13.24 15.7928C13.2964 15.5294 13.3505 15.2651 13.4083 15.0021C13.4448 14.8343 13.4858 14.6678 13.5246 14.5005C13.5815 14.2573 13.6338 14.0124 13.6974 13.7711C13.756 13.5491 13.8129 13.3254 13.8959 13.1121C14.0537 12.7065 14.2143 12.3006 14.402 11.9081C14.655 11.379 14.9753 10.8896 15.356 10.4408C15.7259 10.005 16.1274 9.60265 16.6078 9.28825C16.8951 9.0997 17.1811 8.90348 17.4878 8.75191C17.8153 8.59043 18.1631 8.46593 18.5095 8.34775C18.7892 8.25257 19.0774 8.17814 19.3666 8.11679C19.6156 8.06402 19.8704 8.03335 20.1244 8.01034C20.4798 7.97831 20.8371 7.96298 21.1939 7.94042C21.1939 7.94674 21.1948 7.9535 21.1952 7.95982L21.197 7.96027Z"
    fill="#FDFCED" />
</svg>