<svg width="40" height="40" viewBox="0 0 40 40" fill="none" xmlns="http://www.w3.org/2000/svg">
  <rect width="40" height="40" rx="6" fill="#EE2724" />
  <g clip-path="url(#clip0_374_8077)">
    <path
      d="M30.3906 21.9064C29.9974 21.2 29.423 20.6766 28.6655 20.3328C27.9081 19.989 26.9898 19.7873 25.9106 19.7277C24.8306 19.6664 23.594 19.6766 22.2017 19.7575V19.2137C23.2706 19.2732 24.2791 19.2588 25.2281 19.1677C26.177 19.0766 27.0094 18.8494 27.726 18.4869C28.4426 18.1226 29.0119 17.6086 29.4357 16.943C29.8596 16.2766 30.0715 15.4196 30.0715 14.3694C30.0715 13.4605 29.9209 12.6886 29.6179 12.0528C29.3149 11.4171 28.8451 10.9022 28.2094 10.509C27.5736 10.1158 26.7557 9.83323 25.7574 9.66132C24.7591 9.49025 23.5728 9.4043 22.2009 9.4043H11V30.5958H22.5047C25.4715 30.5958 27.6255 30.132 28.9677 29.2026C30.3098 28.2758 30.9804 26.8017 30.9804 24.783C30.9804 23.572 30.7838 22.6145 30.3906 21.9073V21.9064ZM17.0562 13.1286H21.2936C22.1413 13.1286 22.7574 13.2945 23.1413 13.6281C23.5243 13.9617 23.7157 14.5107 23.7157 15.2783C23.7157 16.1456 23.5243 16.7728 23.1413 17.1558C22.7566 17.5388 22.1413 17.7303 21.2936 17.7303H17.0562V13.1294V13.1286ZM23.9123 26.0239C23.4383 26.4086 22.6655 26.6 21.5966 26.6H17.0553V21.3924H21.5966C22.6655 21.3924 23.4383 21.6094 23.9123 22.0434C24.3864 22.4775 24.6238 23.1788 24.6238 24.1481C24.6238 25.0154 24.3864 25.6409 23.9123 26.0239Z"
      fill="black" />
  </g>
  <defs>
    <clipPath id="clip0_374_8077">
      <rect width="20" height="21.1915" fill="white" transform="translate(11 9.4043)" />
    </clipPath>
  </defs>
</svg>