<svg width="40" height="40" viewBox="0 0 40 40" fill="none" xmlns="http://www.w3.org/2000/svg">
  <rect width="40" height="40" rx="6" fill="#40F87F" />
  <path d="M21.6884 28.1771L6 28.1689L6.49135 24.6287L22.1797 24.6369L21.6884 28.1771Z" fill="black" />
  <path
    d="M25.2786 24.7321L26.5916 15.2924H25.5379L24.1902 24.9868C24.1125 25.4929 23.5114 25.9444 22.9853 25.8137L22.8408 26.8648C24.5296 27.0161 25.12 25.808 25.2794 24.7321H25.2786Z"
    fill="black" />
  <path d="M10.5957 19.1278L12.666 23.5669H13.8105L11.334 18.2289L10.5957 19.1278Z" fill="black" />
  <path d="M11.2552 23.5668H12.3939L10.4335 19.3237L9.7002 20.2284L11.2552 23.5668Z" fill="black" />
  <path
    d="M7.91797 23.5669H8.96837L9.44238 20.1747L15.3278 13H13.9561L8.44152 19.767L7.91797 23.5669Z"
    fill="black" />
  <path d="M13.6622 13H12.3062L10.0667 15.7389L10.4482 13H9.39119L8.51172 19.2931L13.6622 13Z"
    fill="black" />
  <path
    d="M27.8731 15.2924H26.817L25.5345 24.5171C25.385 25.7848 24.8037 27.2783 22.8069 27.0997L22.6641 28.1425C25.6303 28.3244 26.3636 26.1652 26.4908 25.1489L27.874 15.2924H27.8731Z"
    fill="black" />
  <path
    d="M31.8856 15.0575C29.3768 15.0575 28.4883 17.0687 28.3628 18.0759L27.9672 20.976C27.845 21.8741 28.262 23.853 30.7369 23.853C32.59 23.853 34.0004 22.6399 34.2449 20.8346L34.6264 18.0949C34.7866 16.9744 34.3341 15.0575 31.8856 15.0575ZM33.1812 21.0339C33.1556 21.2018 32.8063 22.9169 30.8203 22.9169C29.2389 22.9169 28.9251 21.5202 28.9928 20.8983C29.0193 20.6568 29.3917 17.9337 29.4379 17.7079C29.5057 17.3821 30.0622 16.0135 31.6486 16.0135C33.7122 16.0135 33.6305 17.846 33.595 18.1412C33.5718 18.3356 33.206 20.8751 33.1821 21.0347L33.1812 21.0339Z"
    fill="black" />
  <path d="M19.5391 15.2941H18.4788L17.3359 23.5661H18.3781L19.5391 15.2941Z" fill="black" />
  <path
    d="M16.0898 20.7875C16.0939 20.6949 16.108 20.5998 16.122 20.5022C16.1476 20.3169 16.1732 20.1325 16.1988 19.9473L16.3731 18.6887C16.3921 18.5539 16.4102 18.4182 16.4292 18.2834C16.6373 17.3531 17.6283 17.1894 17.9346 17.5946L18.0841 16.5105C18.0841 16.5105 17.8149 16.4137 17.3665 16.4137C16.5746 16.4137 15.6042 17.0835 15.4763 18.0081L15.0815 20.8578C15.0047 21.5971 15.4606 22.3529 16.511 22.4306C16.7463 22.448 17.004 22.4133 17.279 22.3033L17.4235 21.2547C17.2038 21.4193 16.9263 21.5549 16.6431 21.5078C16.4515 21.4755 16.2888 21.3597 16.1864 21.1968C16.1022 21.0629 16.084 20.9281 16.089 20.7883L16.0898 20.7875Z"
    fill="black" />
  <path
    d="M14.8486 20.866L15.2417 18.0262C15.4845 16.546 17.0081 15.9051 18.1188 16.2598L18.255 15.2948C15.4779 14.8904 14.3796 16.7709 14.2549 18.0196L13.8643 20.8222C13.747 21.6888 14.1112 23.9431 17.1014 23.5933L17.2443 22.5596C16.0997 22.9425 14.6901 22.2528 14.8495 20.8652L14.8486 20.866Z"
    fill="black" />
  <path
    d="M22.9366 15.2941L22.1479 20.8587C22.0711 21.598 22.527 22.3538 23.5774 22.4315C23.8127 22.4489 24.0704 22.4142 24.3454 22.3042L24.4899 21.2556C24.2231 21.4557 23.8598 21.6162 23.5353 21.4541C23.3536 21.3631 23.2182 21.1903 23.1678 20.9935C23.1306 20.8471 23.1595 20.709 23.1802 20.5634C23.2066 20.3757 23.233 20.1872 23.2603 19.9995C23.342 19.4231 23.4229 18.8475 23.5047 18.2711C23.5906 17.6616 23.6773 17.0522 23.7632 16.4427C23.8144 16.0797 23.8656 15.7166 23.9176 15.3536L23.9259 15.2949H22.9357L22.9366 15.2941Z"
    fill="black" />
  <path
    d="M21.7096 15.2948L20.9317 20.823C20.8144 21.6897 21.1786 23.944 24.1688 23.5941L24.3116 22.5605C23.1671 22.9433 21.7575 22.2536 21.9168 20.866L22.698 15.2948H21.7104H21.7096Z"
    fill="black" />
  <path
    d="M31.6538 16.2458C30.2103 16.2458 29.7214 17.5185 29.6603 17.7699C29.6075 17.9866 29.2375 20.7271 29.2202 20.9678C29.183 21.4813 29.4365 22.6845 30.8602 22.6845C32.2838 22.6845 32.8825 21.6103 32.9709 20.9885C32.9932 20.8338 33.3582 18.3265 33.3797 18.1288C33.4011 17.9295 33.5134 16.2458 31.6538 16.2458ZM30.9692 21.6641C30.4308 21.6641 30.2152 21.1861 30.2598 20.8156L30.6281 18.1611C30.7074 17.6732 31.1864 17.2456 31.6538 17.2456C32.2293 17.2456 32.4308 17.779 32.3639 18.0883L31.994 20.7519C31.9296 21.2291 31.4415 21.6641 30.9692 21.6641Z"
    fill="black" />
  <path d="M8.11361 13L6.64453 23.5669H7.69411L9.17062 13H8.11361Z" fill="black" />
  <path d="M20.8157 15.2941H19.7553L18.6133 23.5661H19.6554L20.8157 15.2941Z" fill="black" />
  <path
    d="M8.35341 25.8691C8.22211 25.7169 8.01401 25.6268 7.85546 25.6268C7.69691 25.6268 7.53671 25.6962 7.53671 25.8691C7.53671 26.1874 8.46077 26.1114 8.46077 26.7564C8.46077 27.4014 7.87611 27.6363 7.46073 27.6363C7.14198 27.6363 6.86534 27.4907 6.67871 27.2691L7.00407 26.8606C7.12877 27.0268 7.35751 27.1657 7.55818 27.1657C7.75884 27.1657 7.90418 27.0615 7.90418 26.8887C7.90418 26.5563 6.98425 26.653 6.98425 26.0229C6.98425 25.4548 7.40623 25.1703 7.93887 25.1703C8.40957 25.1703 8.64161 25.4713 8.64161 25.4713L8.35424 25.8699L8.35341 25.8691Z"
    fill="white" />
  <path
    d="M10.1017 26.711H9.82175L9.68302 27.5942H9.13965L9.51703 25.2035H10.3403C10.7309 25.2035 11.0736 25.359 11.0736 25.803C11.0736 26.4026 10.6723 26.7143 10.1009 26.711H10.1017ZM10.1958 25.641H9.98773L9.88781 26.2752H10.0951C10.337 26.2752 10.5171 26.1537 10.5171 25.894C10.5171 25.693 10.3651 25.641 10.195 25.641H10.1958Z"
    fill="white" />
  <path
    d="M12.6819 27.6364C12.0766 27.6364 11.6406 27.2659 11.6406 26.6415C11.6406 25.8063 12.2319 25.1654 13.0734 25.1654C13.6828 25.1654 14.1147 25.5359 14.1147 26.1635C14.1147 26.9955 13.5226 27.6364 12.6819 27.6364ZM12.9966 25.6475C12.516 25.6475 12.2005 26.0875 12.2005 26.5415C12.2005 26.888 12.4119 27.1303 12.7612 27.1303C13.246 27.1303 13.5606 26.6903 13.5606 26.2363C13.5606 25.8898 13.35 25.6475 12.9966 25.6475Z"
    fill="white" />
  <path
    d="M16.1321 26.6076L16.5615 27.595H15.9281L15.5887 26.6837H15.4227L15.2807 27.595H14.7373L15.1147 25.2042H15.938C16.3286 25.2042 16.6994 25.3465 16.6994 25.7972C16.6994 26.1544 16.4781 26.5009 16.1321 26.6076ZM15.796 25.6409H15.5846L15.4913 26.247H15.7027C15.938 26.247 16.142 26.1503 16.142 25.8832C16.142 25.6789 15.962 25.6409 15.796 25.6409Z"
    fill="white" />
  <path
    d="M19.1646 25.2042L19.0953 25.6549H18.504L18.196 27.595H17.6526L17.9606 25.6549H17.3652L17.4379 25.2042H19.1646Z"
    fill="white" />
  <path
    d="M21.1171 25.8691C20.9858 25.7169 20.7777 25.6268 20.6191 25.6268C20.4606 25.6268 20.3004 25.6962 20.3004 25.8691C20.3004 26.1874 21.2244 26.1114 21.2244 26.7564C21.2244 27.4014 20.6398 27.6363 20.2244 27.6363C19.9057 27.6363 19.629 27.4907 19.4424 27.2691L19.7677 26.8606C19.8924 27.0268 20.1212 27.1657 20.3218 27.1657C20.5225 27.1657 20.6679 27.0615 20.6679 26.8887C20.6679 26.5563 19.7479 26.653 19.7479 26.0229C19.7479 25.4548 20.1699 25.1703 20.7025 25.1703C21.1732 25.1703 21.4053 25.4713 21.4053 25.4713L21.1179 25.8699L21.1171 25.8691Z"
    fill="white" />
</svg>